<svg xmlns="http://www.w3.org/2000/svg" width="70" height="54" fill="none" aria-hidden="true" viewBox="0 0 70 54"><path fill="#000" fill-opacity=".04" fill-rule="evenodd" d="M22.662 54c-4.678-2.638-9.258-6.482-11.99-11.082-4.795-8.071-4.134-13.959-1.67-19.948 2.492-6.054 11.596-9.621 18.595-8.491s11.898 8.157 21.337 9.165 17.112 5.787 19.314 12.62c2.312 7.176-2.215 13.174-6.285 16.049a44 44 0 0 1-2.542 1.673z" clip-rule="evenodd"/><path fill="#fff" stroke="#333" stroke-width="1.5" d="M35.3 48.936c0 .792-.243 1.566-.699 2.225a4.1 4.1 0 0 1-1.863 1.475 4.3 4.3 0 0 1-2.398.228 4.2 4.2 0 0 1-2.125-1.096 3.96 3.96 0 0 1-1.136-2.05 3.87 3.87 0 0 1 .236-2.314 4.04 4.04 0 0 1 1.529-1.797 4.26 4.26 0 0 1 2.306-.675c1.1 0 2.156.422 2.935 1.173a3.93 3.93 0 0 1 1.215 2.831Zm17.623 0c0 .792-.244 1.566-.7 2.225a4.1 4.1 0 0 1-1.863 1.475 4.3 4.3 0 0 1-2.398.228 4.2 4.2 0 0 1-2.125-1.096 3.96 3.96 0 0 1-1.136-2.05 3.87 3.87 0 0 1 .236-2.314 4.04 4.04 0 0 1 1.529-1.797 4.26 4.26 0 0 1 2.306-.675c1.1 0 2.156.422 2.935 1.173a3.93 3.93 0 0 1 1.216 2.831Z"/><path fill="#eee" stroke="#fff" stroke-linecap="square" stroke-width="3" d="M55.974 34.424H23.513l-4.564-17.719h43.99l-4.562 15.908a2.5 2.5 0 0 1-2.403 1.81Zm7.149-18.357v.001z"/><path stroke="#333" stroke-linecap="square" stroke-width="1.5" d="M22.35 35.924h33.624a4 4 0 0 0 3.845-2.897l4.745-16.546a1 1 0 0 0-.96-1.276h-46.59z"/><path stroke="#333" stroke-linecap="round" stroke-width="1.5" d="M18.75 22.726h43.615M20.917 30.1h39.561M11.737 4.855c1.552.132 2.846 1.199 3.223 2.657l8.502 32.884c.185.713.849 1.214 1.611 1.214h29.984"/><path fill="#fff" d="M32.67 46.99c.721 2.168-2.36 3.209-3.274 1.009-.544-1.318-2.451-6.39-2.451-6.39h7.165s-2.383 2.552-1.44 5.382"/><path stroke="#333" stroke-width="1.5" d="M32.67 46.99c.721 2.168-2.36 3.209-3.274 1.009-.544-1.318-2.451-6.39-2.451-6.39h7.165s-2.383 2.552-1.44 5.382Z"/><path fill="#fff" d="M50.292 46.99c.721 2.168-2.36 3.209-3.274 1.009-.544-1.318-2.451-6.39-2.451-6.39h7.165s-2.383 2.552-1.44 5.382"/><path stroke="#333" stroke-width="1.5" d="M50.292 46.99c.721 2.168-2.36 3.209-3.274 1.009-.544-1.318-2.451-6.39-2.451-6.39h7.165s-2.383 2.552-1.44 5.382Z"/><path fill="#fff" stroke="#333" stroke-linecap="round" stroke-width="1.5" d="M3.319 2.045c-1.005-.085-1.891.631-1.98 1.6S1.994 5.47 3 5.556l7.829.665a.66.66 0 0 0 .72-.582l.203-2.234a.65.65 0 0 0-.603-.694z"/><path stroke="#333" stroke-linecap="round" stroke-width="1.5" d="M33.401 35.918 28.106 15.38m17.236 20.538L40.047 15.38m11.94 0 5.188 20.124"/><path stroke="#333" stroke-width="1.5" d="M69.668 52.94H9.798"/><path stroke="#333" stroke-linecap="round" stroke-width="1.5" d="m29.82 5.445 5.32 4.408m15.991-4.408-5.32 4.408M40.476.902v7.55"/></svg>